<?xml version="1.0" encoding="UTF-8" standalone="no"?>
<!-- Created with Inkscape (http://www.inkscape.org/) -->

<svg
   xmlns:dc="http://purl.org/dc/elements/1.1/"
   xmlns:cc="http://creativecommons.org/ns#"
   xmlns:rdf="http://www.w3.org/1999/02/22-rdf-syntax-ns#"
   xmlns:svg="http://www.w3.org/2000/svg"
   xmlns="http://www.w3.org/2000/svg"
   xmlns:sodipodi="http://sodipodi.sourceforge.net/DTD/sodipodi-0.dtd"
   xmlns:inkscape="http://www.inkscape.org/namespaces/inkscape"
   width="180mm"
   height="280mm"
   viewBox="0 0 637.79525 992.12594"
   id="svg2"
   version="1.1"
   inkscape:version="0.91 r13725"
   sodipodi:docname="baseballbatterguy-A-1915.svg">
  <defs
     id="defs4" />
  <sodipodi:namedview
     id="base"
     pagecolor="#ffffff"
     bordercolor="#666666"
     borderopacity="1.0"
     inkscape:pageopacity="0.0"
     inkscape:pageshadow="2"
     inkscape:zoom="0.29523989"
     inkscape:cx="-80.535976"
     inkscape:cy="427.58559"
     inkscape:document-units="px"
     inkscape:current-layer="layer1"
     showgrid="false"
     fit-margin-top="0"
     fit-margin-left="0"
     fit-margin-right="0"
     fit-margin-bottom="0"
     inkscape:window-width="1916"
     inkscape:window-height="1035"
     inkscape:window-x="4"
     inkscape:window-y="1"
     inkscape:window-maximized="1" />
  <metadata
     id="metadata7">
    <rdf:RDF>
      <cc:Work
         rdf:about="">
        <dc:format>image/svg+xml</dc:format>
        <dc:type
           rdf:resource="http://purl.org/dc/dcmitype/StillImage" />
        <dc:title></dc:title>
        <dc:creator>
          <cc:Agent>
            <dc:title>j4p4n</dc:title>
          </cc:Agent>
        </dc:creator>
        <cc:license
           rdf:resource="http://creativecommons.org/publicdomain/zero/1.0/" />
      </cc:Work>
      <cc:License
         rdf:about="http://creativecommons.org/publicdomain/zero/1.0/">
        <cc:permits
           rdf:resource="http://creativecommons.org/ns#Reproduction" />
        <cc:permits
           rdf:resource="http://creativecommons.org/ns#Distribution" />
        <cc:permits
           rdf:resource="http://creativecommons.org/ns#DerivativeWorks" />
      </cc:License>
    </rdf:RDF>
  </metadata>
  <g
     inkscape:label="Layer 1"
     inkscape:groupmode="layer"
     id="layer1"
     transform="translate(123.39444,52.852417)">
    <path
       style="fill:#000000"
       d="m 334.4523,868.42907 c -2.71415,-2.71414 -3.02028,-3.55988 -2.44328,-6.75 0.97082,-5.36743 2.71268,-8.26585 7.7679,-12.92558 5.6168,-5.17739 6.23909,-6.42525 6.4515,-12.93706 0.14647,-4.48998 -0.14269,-5.37648 -2.07845,-6.37219 -5.65243,-2.90746 -9.84585,-8.91224 -6.22384,-8.91224 0.83861,0 1.96417,-1.15575 2.50123,-2.56833 0.53706,-1.41259 2.10093,-4.04256 3.47525,-5.8444 3.08794,-4.04849 3.14597,-6.62654 0.24877,-11.05283 -3.05385,-4.66563 -5.57941,-5.60625 -17.30921,-6.44665 -11.59057,-0.83043 -20.20777,-4.17215 -27.31417,-10.59236 -6.40987,-5.79094 -4.73057,-9.39883 1.81221,-3.89344 4.2473,3.57386 11.7251,6.24279 20.86987,7.44875 4.23022,0.55785 8.9288,1.2604 10.4413,1.56122 3.37337,0.67093 3.45986,-0.2408 0.83877,-8.84096 -1.05118,-3.44905 -2.70224,-9.196 -3.66903,-12.771 -2.59509,-9.59619 -7.98324,-18.62633 -15.64235,-26.21545 -3.72757,-3.6935 -6.77739,-7.181 -6.77739,-7.75 0,-1.61886 2.49663,-1.21665 5.11514,0.82405 1.31167,1.02224 3.82008,2.59469 5.57423,3.49433 2.50321,1.28381 4.19988,3.7346 7.88624,11.3914 2.58327,5.36562 6.05154,11.47875 7.70727,13.58473 3.21242,4.08601 6.61472,15.86967 6.69013,23.17094 0.0377,3.65353 0.5604,4.42767 6.03416,8.9375 3.29605,2.71562 5.99283,5.68338 5.99283,6.59501 0,0.91163 0.88851,2.46161 1.97447,3.44439 1.08596,0.98278 2.20593,2.51613 2.48883,3.40746 0.28289,0.89132 1.43982,2.19856 2.57096,2.90496 1.75718,1.09738 2.4336,0.98782 4.64603,-0.75247 3.21715,-2.53062 5.9298,-2.57204 9.89975,-0.15117 7.02568,4.28425 7.83599,16.28006 1.62202,24.01251 -2.586,3.21793 -3.20206,4.89113 -3.20206,8.69668 0,5.27383 -4.20535,15.40513 -6.39444,15.40513 -0.73471,0 -2.48001,0.9 -3.87843,2 -1.39842,1.1 -3.25911,2 -4.13486,2 -0.87575,0 -1.59227,0.59068 -1.59227,1.31261 0,1.2001 -8.68641,5.68739 -11.00954,5.68739 -0.54475,0 -0.99046,0.45 -0.99046,1 0,0.55 -1.54038,1 -3.42308,1 -2.49531,0 -4.26406,-0.84099 -6.526,-3.10293 z m 10.63398,-4.96069 c 1.54831,-0.58499 3.9401,-2.04749 5.3151,-3.25 2.51649,-2.2008 5.22064,-3.90252 10.19843,-6.41786 1.48414,-0.74996 4.10304,-3.25467 5.81977,-5.56604 2.50096,-3.36723 3.01662,-4.87286 2.59448,-7.57546 -0.39695,-2.54134 0.052,-4.14398 1.82072,-6.5 1.29117,-1.71986 2.79789,-5.29069 3.34826,-7.93517 1.5591,-7.49126 -0.0681,-11.69185 -4.5291,-11.69185 -2.23218,0 -2.43945,0.31555 -1.91843,2.92067 0.42652,2.13257 -0.0811,3.90102 -1.88138,6.55382 -1.99947,2.94638 -2.25921,4.01863 -1.3741,5.67247 1.38166,2.58165 0.38402,6.69853 -2.32709,9.60304 -4.28207,4.58753 -6.78224,2.23105 -3.21019,-3.0257 2.62335,-3.8606 1.99223,-5.32381 -1.80032,-4.17391 -2.48301,0.75284 -6.74105,4.32087 -6.74105,5.64867 0,0.46775 1.2375,1.32292 2.75,1.9004 2.65605,1.01408 2.68369,1.09864 0.80887,2.47524 -1.06762,0.78392 -2.73615,1.4253 -3.70785,1.4253 -1.03112,0 -2.84253,1.83574 -4.35057,4.40901 -1.42112,2.42496 -3.22201,4.6539 -4.00197,4.9532 -0.77997,0.2993 -2.78402,2.42974 -4.45344,4.73431 -2.83207,3.90956 -2.91845,4.27883 -1.29017,5.51499 2.13594,1.62158 5.20272,1.73315 8.93003,0.32487 z m 15.39202,-38.85946 c 2.81503,-2.81502 3.8206,-6.40419 2.09333,-7.4717 -0.77522,-0.47911 -8.17025,8.34916 -8.17025,9.75373 0,1.6446 3.44336,0.35154 6.07692,-2.28203 z m -121.15462,42.72963 c -1.60727,-0.97743 -2.9223,-2.48111 -2.9223,-3.34151 0,-2.03269 2.8127,-7.46504 3.86517,-7.46504 0.44759,0 1.26556,-1.0125 1.8177,-2.25 0.75524,-1.69267 0.55379,-3.24081 -0.81326,-6.25 -0.99944,-2.2 -1.82896,-4.7875 -1.84339,-5.75 -0.0415,-2.76911 -3.71808,-5.75 -7.09196,-5.75 -1.68616,0 -4.04866,-0.52088 -5.25,-1.1575 -3.86319,-2.04722 -21.37176,-17.97164 -25.02176,-22.7578 -4.0717,-5.33922 -9.656,-16.64741 -9.6714,-19.5847 -0.01,-1.1 -1.5811,-3.97583 -3.5008,-6.39073 -1.9197,-2.4149 -3.4903,-4.77611 -3.4903,-5.24712 0,-0.47101 -1.5355,-2.55605 -3.4123,-4.63341 -4.3182,-4.77968 -5.6007,-10.45186 -3.0105,-13.314 1.3242,-1.46327 1.8619,-3.8175 1.9895,-8.71001 0.1988,-7.63037 -1.1468,-11.09511 -5.5832,-14.37506 -2.9045,-2.14741 -4.0026,-4.82967 -1.9772,-4.82967 0.5534,0 -0.3466,-1.86752 -2,-4.15004 -1.6535,-2.28252 -3.0063,-4.9522 -3.0063,-5.93261 0,-0.98042 -0.7875,-2.00777 -1.75,-2.28302 -2.4996,-0.71482 -15.97071,-0.24691 -16.80121,0.58358 -1.3923,1.39224 0.5367,4.01913 2.56241,3.48942 2.803,-0.73299 3.3257,0.7406 1.5089,4.25388 -2.3101,4.46709 -5.80971,6.48935 -8.62391,4.98325 -1.8859,-1.00934 -2.4514,-0.90562 -3.5959,0.65959 -1.8535,2.53483 -1.2307,4.83151 1.4126,5.20931 4.2567,0.60837 4.8176,9.8993 0.9917,16.42769 -2.7394,4.67451 -9.3209,8.75895 -14.1138,8.75895 -3.73,0 -8.2312,-2.51699 -8.8701,-4.95995 -0.3843,-1.46956 -1.3552,-2.04005 -3.4721,-2.04005 -3.5111,0 -5.9893,-2.47704 -7.3277,-7.32422 -0.5547,-2.00901 -1.7978,-3.81934 -2.8526,-4.15411 -2.3097,-0.73306 -3.5702,-5.21197 -1.9995,-7.10459 1.6625,-2.00312 0.3829,-4.41708 -2.3412,-4.41708 -3.415399,0 -8.727599,-5.86769 -8.727599,-9.64014 0,-2.4597 -0.6791,-3.41064 -3.5334,-4.94777 -2.5285,-1.36167 -3.8537,-2.97193 -4.6596,-5.6619 -0.9497,-3.16981 -1.7287,-3.92128 -4.9693,-4.79389 -4.4819,-1.20684 -7.3307,-4.85611 -6.4695,-8.28733 0.7732,-3.08036 -0.2212,-4.24106 -10.7945,-12.60042 -4.9094,-3.88146 -9.6513,-8.07226 -10.5374,-9.31288 -0.8862,-1.24062 -4.8929,-5.63067 -8.904,-9.75567 -4.011,-4.125 -7.5942,-7.86146 -7.9625,-8.30324 -0.3684,-0.44179 -7.4198,-7.34195 -15.6698,-15.33369 -8.25,-7.99175 -20.85000015,-20.23507 -28.0000001,-27.20739 -7.1499999,-6.97232 -14.5749999,-13.84999 -16.4999999,-15.28371 -1.925,-1.43371 -8.9,-8.16287 -15.5,-14.95367 -6.6,-6.7908 -16.141695,-16.59375 -21.203895,-21.78435 -5.5681,-5.70945 -9.45,-10.55803 -9.8269,-12.27423 -0.3427,-1.56023 -1.0385,-3.0935 -1.5461,-3.40727 -1.5738,-0.97266 -1.0167,-9.06874 0.9373,-13.61954 3.5037,-8.16039 14.0852,-15.81633 19.8577,-14.36752 3.485895,0.87491 34.356495,32.02276 37.339195,37.67452 0.685,1.29805 4.6883999,5.96009 8.8961999,10.36009 4.20789995,4.4 10.1023,10.90091 13.0986,14.44647 2.9964001,3.54556 6.9428001,8.04556 8.7698001,10 1.8271,1.95444 5.9485,6.92853 9.1586,11.05353 3.2102,4.125 12.0099,14.24046 19.555,22.47879 7.545,8.23834 14.4258,16.11334 15.2906,17.5 1.9321,3.09805 38.987999,40.77168 41.438699,42.1296 2.6525,1.46966 3.4119,-1.69282 1.2752,-5.31004 -0.9916,-1.67848 -1.3816,-3.35673 -0.8937,-3.8447 0.488,-0.48797 3.7007,-0.27805 7.3599,0.48089 4.1698,0.86486 7.1191,1.01607 8.2409,0.42251 1.3342,-0.70587 3.0089,0.008 7.0849,3.01884 9.6302,7.11426 12.2752,8.12411 21.2782,8.12411 10.50071,0 14.40881,-0.78446 14.32331,-2.875 -0.036,-0.89375 -1.3205,-3.875 -2.8533,-6.625 l -2.7869,-5 -5.89671,-0.11227 c -31.9262,-0.60784 -44.2862,-3.42932 -57.026199,-13.01771 -3.9243,-2.95351 -7.6013,-5.37002 -8.1712,-5.37002 -0.5698,0 -1.943,-1.4625 -3.0514,-3.25 -1.1084,-1.7875 -2.8493,-4.15 -3.8686,-5.25 -1.0193,-1.1 -2.4613,-3.48083 -3.2044,-5.29073 -0.7432,-1.8099 -2.5716,-4.97542 -4.0632,-7.03449 -6.3154,-8.71819 -11.3931,-23.10467 -13.1208,-37.17478 -0.4389,-3.575 -1.9446,-10.775 -3.3459,-16 -2.3271,-8.67738 -3.0158,-14.09344 -4.0052,-31.5 -0.8688,-15.28496 -1.9327,-23.2765 -3.528,-26.5 -0.9526,-1.925 -3.6541,-8.41644 -6.0032,-14.42543 -2.3491,-6.00898 -5.3106,-12.75898 -6.5811,-15 -10.4419,-18.41916 -13.1478,-24.90559 -16.4694,-39.47946 -1.8763,-8.23286 -0.6957,-34.4538 2.0011,-44.44066 1.1652,-4.31505 2.7631,-12.13962 3.5509,-17.38792 0.7879,-5.2483 1.6949,-9.80477 2.0156,-10.12549 3.0396,-3.03953 2.606,18.49545 -0.6112,30.35896 -1.1932,4.4 -2.564,11.375 -3.0461,15.5 -0.8415,7.19927 -0.2567,24.52202 0.8914,26.40712 0.3039,0.49892 0.4941,2.46193 0.4227,4.36225 -0.1322,3.51416 7.8783,21.97464 10.1822,23.46532 3.0297,1.96036 6.3478,-0.47065 7.1449,-5.23469 0.3221,-1.925 1.5851,-5.075 2.8068,-7 1.2217,-1.925 2.8878,-4.81473 3.7025,-6.42162 1.2655,-2.49612 1.524,-2.63378 1.7752,-0.9452 0.1617,1.08703 -1.5258,5.93407 -3.75,10.77119 -5.5095,11.98184 -5.3916,13.20517 1.717,17.82674 3.1564,2.05212 8.7651,6.10212 12.4637,9 5.9036,4.62557 6.4355,5.30627 4.3563,5.57505 -1.3555,0.17523 -4.5862,-1.05846 -7.5543,-2.88472 -7.177,-4.41607 -8.1175,-3.32563 -6.7522,7.82856 0.5554,4.5375 1.3958,8.25 1.8676,8.25 0.4719,0 0.8579,-0.41786 0.8579,-0.92857 0,-0.51072 0.6924,-1.62098 1.5387,-2.46726 2.1893,-2.18935 6.6667,-1.07869 14.4613,3.58729 3.575,2.14006 7.4568,4.13226 8.6263,4.42713 1.257,0.31694 4.8816,-0.75213 8.8662,-2.61511 10.4602,-4.89051 18.521799,-5.03754 31.974799,-0.58315 10.1272,3.35318 21.6456,4.86397 24.3484,3.19359 1.3425,-0.82974 0.7516,-4.76164 -2.0249,-13.47361 -1.6652,-5.22483 -3.1044,-7.4108 -8.0653,-12.25 -6.771,-6.60497 -8.7168,-7.0856 -13.7255,-3.39031 -3.7473,2.76469 -5.6201,3.13982 -6.2494,1.25184 -0.2975,-0.89251 -1.9637,-0.46511 -5.8477,1.5 -8.686299,4.39487 -12.066699,3.26307 -5.412599,-1.81221 6.942499,-5.29535 2.122499,-4.30721 -10.2621,2.10379 -12.1924,6.31148 -17.0338,7.60339 -17.9561,4.79144 -0.2102,-0.64083 0.6297,-1.48629 1.8664,-1.87881 1.2367,-0.39251 4.4068,-2.2307 7.0448,-4.08485 2.6379,-1.85416 5.511,-3.3712 6.3846,-3.3712 0.8736,0 4.8629,-1.575 8.8652,-3.5 8.390399,-4.03563 12.005099,-4.4182 13.599399,-1.43932 1.813,3.38767 5.3644,2.16133 5.9675,-2.06068 0.3479,-2.43533 1.0207,-3.50353 2.2116,-3.51161 0.9414,-0.006 2.2689,-0.56888 2.95,-1.25 3.4146,-3.41459 10.023,1.74238 15.326,11.95992 2.0843,4.01593 4.3442,7.97669 5.0219,8.80169 1.9399,2.36142 5.4052,12.53332 5.8698,17.22989 0.2323,2.34856 1.4071,6.52011 2.6107,9.27011 3.10471,7.09334 5.98201,16.53573 5.99711,19.68045 0.01,1.95936 -0.5516,2.76641 -2.0853,3 -1.5011,0.2286 -2.76441,1.96168 -4.43891,6.08917 -3.9183,9.65857 -13.2848,18.71231 -19.372,18.72526 -2.0554,0.004 -1.1569,-1.22202 6.1174,-8.35048 4.7017,-4.60737 10.1884,-11.19102 12.2311,-14.67634 l 3.70451,-6.32073 -1.13761,-6.57367 c -1.1788,-6.81133 -4.6454,-12.07366 -7.9536,-12.07366 -1.7688,0 -7.0527,4.54695 -7.0527,6.06906 0,0.54346 -2.601,2.11612 -5.7799,3.4948 -5.6223,2.43832 -12.3632,8.81859 -19.2277,18.19915 -3.1156,4.25761 -13.283099,9.23699 -18.861299,9.23699 -2.3159,0 -5.8804,-0.83615 -7.9209,-1.8581 -2.0406,-1.02196 -4.9287,-2.15076 -6.418,-2.50845 -3.422,-0.82191 -7.5328,-6.7251 -11.7555,-16.88111 -2.1559,-5.18504 -4.1965,-8.44199 -6.1694,-9.84687 -1.6215,-1.15456 -3.8795,-4.08062 -5.0178,-6.50234 -1.1384,-2.42172 -2.4702,-4.40313 -2.9596,-4.40313 -1.2471,0 -1.1093,3.11841 0.5965,13.5 0.8132,4.95 1.4865,11.08887 1.4961,13.64194 0.018,4.66467 3.6048,24.3813 4.7827,26.28718 0.7192,1.16376 2.2613,10.12679 2.7649,16.07088 0.1864,2.2 0.8184,5.57203 1.4044,7.4934 0.586,1.92137 1.0721,5.52137 1.0802,8 0.017,5.36598 1.9445,9.56089 4.3023,9.3663 1.0809,-0.0892 1.9117,0.82117 2.2813,2.5 1.9653,8.92615 5.5174,16.1403 7.9472,16.1403 0.7603,0 2.4657,1.59421 3.7897,3.5427 4.9072,7.22154 15.8856,19.26125 19.182199,21.03661 3.9805,2.14364 5.1614,1.53059 3.3587,-1.74366 -0.7072,-1.28461 -1.1609,-3.14998 -1.008,-4.14528 0.1528,-0.99529 -0.2601,-2.45779 -0.9176,-3.25 -2.0352,-2.45234 1.4464,-1.75522 4.1631,0.83358 1.3125,1.25067 4.3736,3.61317 6.8023,5.25 2.9885,2.01401 3.8944,3.07731 2.8024,3.28928 -0.8874,0.17228 -2.5075,-0.16522 -3.6001,-0.75 -4.7336,-2.53334 -5.3241,-0.82924 -1.256,3.62473 2.3217,2.5419 3.9411,3.26849 8.5753,3.8475 6.6164,0.82666 9.5892,-0.68721 6.0625,-3.08726 -5.001,-3.40344 -5.7627,-4.16779 -4.7668,-4.78333 0.57,-0.35223 3.2256,1.08384 5.9015,3.19127 4.8827,3.8454 11.179,6.68603 12.2775,5.53906 0.3233,-0.3376 -0.3122,-1.22004 -1.4122,-1.96096 -4.7186,-3.17833 -5.9602,-4.30733 -5.3776,-4.88992 0.3405,-0.34056 1.8061,-0.0784 3.2569,0.58265 2.0634,0.94015 3.1379,0.9342 4.9345,-0.0273 1.9405,-1.03853 3.3484,-0.83324 9.0792,1.32381 5.26071,1.98014 7.22751,2.31481 8.76561,1.49161 1.3371,-0.71558 2.9003,-0.74161 4.7985,-0.0799 2.2434,0.78205 3.4813,0.57644 6.0933,-1.01206 1.9218,-1.16868 4.3033,-1.7975 5.7561,-1.51979 2.8409,0.54307 15.6002,-3.55384 25.7628,-8.2722 3.8119,-1.76982 9.70635,-4.2668 13.0988,-5.54885 7.55825,-2.85636 16.189,-7.53263 22.8319,-12.37067 7.53003,-5.48413 13.02553,-9.11162 13.80375,-9.11162 0.38294,0 0.69625,0.675 0.69625,1.5 0,0.825 0.1678,1.5 0.37288,1.5 1.20635,0 9.99919,-4.63533 15.12712,-7.97458 3.3,-2.14893 8.025,-5.14148 10.5,-6.65013 2.475,-1.50864 6.13976,-4.01025 8.1439,-5.55914 2.00415,-1.54888 3.91038,-2.81615 4.23606,-2.81615 0.32569,0 2.96093,-1.58817 5.8561,-3.52926 2.89517,-1.94109 7.06394,-4.7064 9.26394,-6.14512 2.2,-1.43873 6.475,-5.71527 9.5,-9.50343 3.025,-3.78817 6.91935,-8.46506 8.65411,-10.39309 5.21752,-5.79881 13.99544,-19.65963 15.15406,-23.9291 0.59703,-2.2 2.18913,-8.05 3.538,-13 1.34888,-4.95 2.93722,-11.65029 3.52964,-14.88954 0.59242,-3.23925 2.66272,-8.95347 4.60066,-12.69828 1.93794,-3.74481 3.52353,-7.52524 3.52353,-8.40096 0,-2.6513 4.18234,-7.45187 9.16121,-10.51539 2.58713,-1.59188 5.72788,-4.27937 6.97944,-5.97221 1.25157,-1.69283 2.82403,-2.86742 3.49435,-2.61019 1.46422,0.56187 3.95651,-2.15551 2.92356,-3.1876 -0.39954,-0.3992 -3.72617,-0.75481 -7.3925,-0.79022 -4.70308,-0.0454 -7.84396,-0.67666 -10.66606,-2.14359 -5.17125,-2.68801 -6.81979,-4.6773 -8.97782,-10.83344 -1.76584,-5.03736 -1.76523,-5.04542 0.74818,-10 2.71796,-5.35777 14.82167,-17.68249 15.46627,-15.74868 0.21619,0.64857 -0.0891,2.08014 -0.67839,3.18127 -0.85443,1.59653 -0.71693,2.20046 0.67885,2.98158 1.61718,0.90501 1.56638,1.17531 -0.6677,3.55339 -2.22636,2.36985 -2.26549,2.57422 -0.4937,2.57835 1.3844,0.003 0.17073,1.5688 -4.32569,5.57988 -5.85641,5.22429 -8.05126,9.41563 -4.93061,9.41563 0.72567,0 3.73194,-1.8 6.68061,-4 5.4727,-4.08318 9.53239,-5.60623 5,-1.87582 -9.48205,7.80426 -10.73775,10.08854 -5.86737,10.67348 1.80531,0.21681 2.84774,-0.39246 3.83833,-2.2434 1.48082,-2.76693 6.02904,-6.22655 6.02904,-4.58601 0,0.55789 -1.42863,2.37963 -3.17474,4.04831 -3.85138,3.68058 -3.08254,4.81033 3.83087,5.62912 4.61023,0.54601 5.29111,0.33954 8.67342,-2.63017 2.01875,-1.77248 3.68542,-3.73858 3.70372,-4.3691 0.0517,-1.78333 3.62449,-5.64641 5.22204,-5.64641 1.63448,0 4.12486,-2.61346 5.10078,-5.35287 1.25138,-3.51262 8.15373,-11.41977 12.14391,-13.91175 2.2,-1.37395 5.72451,-3.0486 7.83225,-3.72144 8.84384,-2.82314 14.48192,-7.96722 20.29192,-18.51394 2.19703,-3.9882 9.3258,-12.5 10.46895,-12.5 1.43792,0 1.05637,3.80731 -0.73153,7.29966 -0.90112,1.76019 -3.31549,5.22534 -5.36526,7.70034 -2.04977,2.475 -4.06703,5.625 -4.48278,7 -0.41576,1.375 -3.73645,5.38637 -7.37931,8.91416 l -6.62338,6.41416 -5.68693,-0.2321 c -3.82508,-0.15611 -6.4744,0.28388 -8.09226,1.34394 -3.0217,1.9799 -8.73167,10.68557 -8.73167,13.31269 0,1.79178 -5.56751,7.46941 -12.49992,12.74715 -1.79531,1.36679 -3.21953,4.05793 -4.49842,8.5 -1.02926,3.575 -2.98598,9.875 -4.34825,14 -1.36228,4.125 -3.67095,11.55 -5.13038,16.5 -1.45943,4.95 -3.24931,10.35 -3.9775,12 -3.70723,8.40012 -4.48246,10.85288 -6.03113,19.08178 -0.92312,4.90502 -2.26377,10.94322 -2.97923,13.41822 -0.71546,2.475 -1.85575,6.525 -2.53398,9 -0.67823,2.475 -1.58908,5.625 -2.02412,7 -0.43504,1.375 -1.98247,6.55 -3.43873,11.5 -1.45627,4.95 -4.64814,12.94623 -7.09305,17.7694 -5.41749,10.68729 -5.57333,12.87031 -1.11548,15.62541 1.83139,1.13187 4.17053,3.61908 5.1981,5.52715 1.64562,3.05574 1.70331,3.77749 0.48404,6.05571 -1.32393,2.47379 -1.1845,2.77032 3.19943,6.80442 5.1413,4.73103 7.78862,10.54692 7.78862,17.11079 0,3.85586 -0.49692,4.81044 -4.35571,8.36736 -2.39565,2.20822 -5.31121,4.52632 -6.47903,5.15132 -1.32554,0.7094 -2.70106,3.12372 -3.66099,6.42576 -1.98767,6.83736 -7.24934,12.10084 -14.14321,14.1481 -2.7927,0.82934 -6.77828,2.8594 -8.85685,4.51124 -4.62834,3.67814 -10.58828,3.9984 -19.25023,1.03442 -10.86818,-3.71891 -17.19971,-5.00221 -19.80076,-4.01329 -5.57419,2.1193 -1.33039,4.17974 12.33839,5.99052 9.35978,1.23994 16.43474,3.90567 20.39869,7.68588 1.49846,1.42901 3.34186,2.31558 4.16104,2.00123 0.80891,-0.31041 3.14152,-3.74386 5.18357,-7.6299 3.54038,-6.73735 4.74704,-8.03637 5.83292,-6.27937 0.71271,1.15318 -5.92217,15.94078 -8.90968,19.85761 -1.41057,1.84934 -5.2407,5.24963 -8.51141,7.5562 -3.27071,2.30657 -5.94674,4.68488 -5.94674,5.28514 0,1.83423 -12.24945,11.54453 -18.7776,14.88524 -4.15951,2.12859 -10.75752,2.94882 -13.20105,1.64109 -3.12399,-1.67191 -6.01333,-6.99537 -6.01761,-11.08712 -0.005,-4.59729 3.0805,-7.4897 8.74778,-8.20089 3.62231,-0.45456 17.09583,-6.43736 19.534,-8.6739 0.43204,-0.39631 -0.71183,-2.35531 -2.54194,-4.35332 -2.40833,-2.62928 -5.11136,-4.18163 -9.78552,-5.61981 -11.93467,-3.67216 -13.994,-3.678 -21.62038,-0.0613 -9.23254,4.3784 -16.48904,6.80904 -22.67954,7.59673 -2.83698,0.36099 -8.49262,1.496 -12.5681,2.52226 -4.07548,1.02626 -10.27794,1.86592 -13.78325,1.86592 -4.99669,0 -7.50009,0.58883 -11.58999,2.72605 -4.516,2.35984 -6.4028,2.72927 -14.0451,2.75 -8.4903,0.023 -8.905,-0.0813 -10.8334,-2.72605 -1.9549,-2.68117 -5.1705,-3.63959 -6.2657,-1.86754 -0.5325,0.86167 1.7285,4.18132 5.9511,8.73766 1.8053,1.94785 3.3531,4.66812 6.4169,11.27711 0.3562,0.76848 3.1029,2.03432 6.1036,2.81298 4.389,1.13893 7.2695,1.20548 14.7315,0.34036 7.85724,-0.91095 9.729,-0.84094 12.24054,0.45783 3.2819,1.69713 5.71612,4.93003 6.01731,7.9916 0.64782,6.58502 -1.31261,9.50564 -6.34922,9.45896 -13.13853,-0.12177 -31.94883,0.90551 -32.83663,1.7933 -1.6545,1.65454 0.6866,7.42404 4.4211,10.89542 9.1664,8.52052 18.6392,14.18773 37.4812,22.42357 6.29824,2.75296 5.5294,4.32254 -1.79215,3.65864 -3.98493,-0.36134 -8.61674,-1.77054 -13.6038,-4.13888 -4.15885,-1.97506 -8.18995,-3.59101 -8.95785,-3.59101 -4.1676,0 0.87,9.33697 9.93334,18.41119 11.60568,11.61957 22.1909,18.58881 28.23357,18.58881 1.27537,0 2.63214,0.5069 3.01504,1.12645 1.17285,1.89771 12.06314,0.37715 15.84158,-2.21188 4.89752,-3.35584 7.09422,-10.41321 4.03224,-12.95443 -1.27473,-1.05793 -2.20161,-0.9703 -5.25,0.49636 -4.61832,2.222 -16.49548,5.58954 -17.18758,4.87322 -0.53559,-0.55433 1.07705,-1.86222 6.98561,-5.66549 3.01767,-1.94244 3.50403,-2.79804 3.52922,-6.20857 0.0161,-2.17561 0.61712,-5.01062 1.33567,-6.30001 1.15676,-2.07571 1.03882,-2.63077 -1.02921,-4.84388 -1.98933,-2.12888 -10.42684,-7.80121 -21.07936,-14.17113 -2.62077,-1.56715 -3.76744,-4.14064 -1.84493,-4.14064 1.4349,0 16.67198,6.68091 19.57448,8.5827 5.56111,3.64378 5.41494,-3.1762 -0.16119,-7.52096 -5.55864,-4.33114 -12.32468,-11.28055 -12.32468,-12.65869 0,-1.77717 2.63988,-1.83437 3.70031,-0.0802 0.43983,0.72758 3.27469,3.15247 6.29969,5.38865 7.00238,5.17637 11.32832,9.88415 13.01624,14.16518 0.93971,2.38336 2.53048,3.92132 5.40756,5.22803 5.31405,2.41354 7.72707,2.46466 6.85684,0.14526 -0.85254,-2.27225 -6.93276,-10.96211 -9.93721,-14.20228 -3.10671,-3.35045 -3.19074,-5.57156 -0.14921,-3.94378 3.41197,1.82603 15.26932,14.68689 18.44698,20.00817 1.57234,2.63303 3.8713,5.336 5.1088,6.00659 1.2375,0.67059 2.25,1.94763 2.25,2.83787 0,2.262 8.64339,10.40863 13.75145,12.96111 9.49265,4.74346 18.04001,5.78107 28.49855,3.45958 4.62093,-1.02571 3.08705,1.16445 -3.13998,4.48341 -6.91103,3.68355 -12.11485,4.03016 -20.20479,1.34579 -5.65514,-1.87646 -17.97124,-10.44474 -23.83314,-16.58064 -1.88535,-1.97348 -5.03535,-4.10655 -7,-4.74015 -1.96465,-0.63361 -5.54445,-2.46726 -7.95511,-4.07478 -5.09903,-3.40024 -6.69292,-3.15355 -7.32209,1.13324 -0.40302,2.74595 0.16078,3.62938 4.90048,7.67862 5.99168,5.11886 8.73437,9.5289 7.92694,12.74595 -0.30593,1.2189 -3.37878,4.01939 -7.08138,6.45371 -6.73121,4.42551 -7.97314,6.74407 -4.95442,9.24939 1.08048,0.89671 1.47191,2.51846 1.2272,5.08447 -0.33262,3.48783 -0.19044,3.7254 1.91349,3.19735 4.31651,-1.08338 1.77666,4.39341 -2.7272,5.88076 -0.825,0.27245 -2.32674,0.0693 -3.33719,-0.45135 -1.01045,-0.5207 -3.98031,-0.65197 -6.59968,-0.29171 -4.14208,0.56968 -4.97051,1.09124 -6.35938,4.00374 -2.57985,5.41 -1.4106,5.72957 18.48111,5.05121 18.53067,-0.63196 19.98961,-0.83709 35.31514,-4.96554 10.77957,-2.90384 14.27321,-4.88316 10.64928,-6.03335 -1.14055,-0.362 -2.96115,-0.18325 -4.04577,0.39722 -1.08461,0.58047 -3.61525,1.0554 -5.62363,1.0554 -2.00839,0 -6.49202,0.75686 -9.96363,1.68192 -5.91412,1.57588 -6.47385,1.57588 -8.87896,0 -3.08472,-2.0212 -7.23468,-2.11059 -10.63435,-0.22908 -1.75546,0.97154 -2.86916,1.07315 -3.75,0.34212 -1.8845,-1.564 -1.55244,-2.44551 1.82795,-4.85256 2.70029,-1.92278 3.38136,-2.03297 5.51325,-0.89202 3.13701,1.67888 16.01375,1.72471 24.40586,0.0869 12.5468,-2.44869 15.06656,-2.41873 21.5,0.25561 3.3,1.37178 6.14966,3.2162 6.33258,4.09869 0.49711,2.39835 -1.73107,4.50845 -4.76075,4.50845 -1.4758,0 -4.20812,1.125 -6.07183,2.5 -1.86371,1.375 -4.76363,2.50689 -6.44428,2.51531 -2.01018,0.0101 -2.6076,0.29951 -1.74605,0.8459 0.9922,0.62925 0.71974,1.21711 -1.12402,2.42519 -2.05598,1.34713 -7.04378,1.64915 -32.13738,1.94596 -27.07472,0.32025 -29.96232,0.19406 -32.62597,-1.42581 z M 133.10427,762.282 c 3.9584,-1.76899 7.6083,-6.32336 8.9215,-11.13241 1.8053,-6.61088 -0.072,-6.5683 -6.1425,0.13928 -3.0504,3.37082 -6.5442,6.43457 -7.7641,6.80834 -3.6934,1.13169 -4.9078,2.50092 -3.6077,4.06747 1.415,1.70495 4.9328,1.75298 8.5928,0.11732 z m -6.0695,-8.63082 c 0.6233,-0.0656 1.3687,-1.01918 1.6563,-2.11918 0.3525,-1.34792 1.3641,-2 3.1025,-2 1.9041,0 3.2767,-1.05368 5.2429,-4.02473 2.2695,-3.42944 2.4966,-4.39083 1.5356,-6.5 -1.5882,-3.4857 -3.8336,-3.08588 -8.0362,1.43095 -4.0348,4.33641 -9.7391,8.08431 -12.3131,8.09004 -2.4435,0.005 -5.1082,2.95331 -3.9409,4.35969 0.7764,0.93532 7.3661,1.32971 12.7529,0.76323 z m -8.2311,-10.72525 c 0.4272,-1.11324 1.3404,-1.42433 2.976,-1.01382 1.6681,0.41864 3.5415,-0.26375 6.3909,-2.32788 4.9928,-3.61678 5.6267,-4.60359 3.9581,-6.16229 -1.0791,-1.00798 -0.8843,-1.69555 1.0795,-3.80994 3.6689,-3.95035 0.5966,-3.78078 -6.3802,0.35213 -6.9708,4.12933 -8.6692,4.99616 -13.6766,6.98007 -4.1643,1.6499 -5.4392,5.5878 -1.809,5.5878 1.0675,0 2.2191,0.45 2.559,1 0.9709,1.57087 4.2212,1.16904 4.9023,-0.60607 z M 103.82027,731.782 c 0.4138,-0.4125 3.5263,-0.75 6.9167,-0.75 5.6314,0 6.192,-0.19456 6.4839,-2.25 0.2757,-1.94071 0.9194,-2.25 4.6827,-2.25 3.4848,0 4.4908,-0.40259 4.9978,-2 0.488,-1.53749 1.513,-2 4.4325,-2 2.3533,0 4.8212,-0.80503 6.4884,-2.11646 2.3902,-1.88007 3.941,-2.10904 13.88491,-2.04999 6.1568,0.0366 14.3272,-0.24853 18.1564,-0.63353 6.9537,-0.69917 6.9631,-0.70428 7.7511,-4.20002 1.2323,-5.46644 0.032,-11.28199 -3.1044,-15.03862 -2.8184,-3.37598 -2.8207,-3.37665 -7.2141,-2.06509 -8.7414,2.60958 -8.9707,2.77376 -7.8807,5.64092 1.6045,4.22006 1.1725,10.01244 -0.9398,12.60201 -1.7767,2.17804 -1.9804,2.22038 -2.6315,0.54701 -0.3881,-0.99757 -0.1966,-2.93125 0.4257,-4.29705 1.3643,-2.99415 1.4971,-10.04522 0.2043,-10.8442 -1.0142,-0.62679 -17.07281,-1.57574 -17.07281,-1.00888 0,0.19227 0.9273,1.92123 2.0606,3.84213 2.2744,3.85468 2.3937,11.65253 0.1894,12.37738 -0.8886,0.2922 -1.25,-1.04003 -1.25,-4.60718 0,-10.07565 -2.2038,-12.10981 -14.2701,-13.1716 -4.2736,-0.37606 -8.0312,-0.94475 -8.3502,-1.26376 -1.2695,-1.26955 0.9227,-2.71307 4.1203,-2.71307 1.8601,0 3.6377,-0.41372 3.9502,-0.91938 0.8546,-1.38273 -2.2921,-4.07942 -4.7716,-4.08931 -1.1982,-0.005 -4.5411,-0.29246 -7.4286,-0.63929 l -5.25,-0.6306 0,5.13929 c 0,3.38247 0.4178,5.13929 1.2222,5.13929 0.6722,0 0.2096,1.0125 -1.0281,2.25 -2.1081,2.10786 -3.117,2.25378 -15.969999,2.30979 -11.4966,0.0501 -13.7676,0.30806 -14.0148,1.59196 -0.513,2.66383 2.7433,4.22067 9.6247,4.60156 8.3158,0.46027 8.4088,0.45815 15.558899,-0.35472 4.2084,-0.47844 5.6968,-0.35274 5.207,0.43975 -0.7354,1.18999 -9.815599,4.16166 -12.716299,4.16166 -0.9644,0 -2.9671,0.46144 -4.4505,1.02543 -2.5759,0.97937 -2.6199,1.11065 -0.9798,2.92297 1.0203,1.12743 3.0016,1.88061 4.882,1.85582 1.7406,-0.0229 5.024899,0.0641 7.298399,0.19331 3.0738,0.17477 4.6699,-0.30108 6.2246,-1.85581 2.5107,-2.51068 6.4846,-3.65473 8.8895,-2.5592 1.4472,0.65928 1.2735,0.86368 -0.9982,1.17431 -1.5127,0.20685 -3.2322,1.27638 -3.8211,2.37675 -1.3225,2.47121 -9.6596,7.86642 -12.1557,7.86642 -2.638099,0 -3.313399,2.74516 -1.239099,5.03725 1.923199,2.12509 2.720499,2.37397 3.885199,1.21275 z m 95.08111,-10.54275 c 4.8583,-1.97944 9.5,-5.29819 9.5,-6.79236 0,-0.40506 -2.1375,-1.76137 -4.75,-3.01401 -4.6193,-2.21486 -7.0091,-4.50046 -8.456,-8.0871 -0.9406,-2.33175 0.6444,-3.19542 2.2699,-1.23683 2.8556,3.44078 15.90926,7.4274 19.60027,5.98596 1.64933,-0.64411 1.53106,-0.96259 -1.16417,-3.13496 -3.32532,-2.68022 -2.14392,-3.1409 2.78212,-1.08487 4.98765,2.08174 10.7133,2.90561 12.11405,1.74309 0.84359,-0.70011 3.20782,-0.71672 7.33812,-0.0516 4.04959,0.65217 6.98284,0.64323 8.74473,-0.0266 1.45815,-0.55439 4.13944,-1.00798 5.95844,-1.00798 6.07778,0 24.80836,-7.08752 23.1399,-8.75597 -0.26678,-0.26678 -4.13267,-0.68026 -8.59086,-0.91883 -4.45819,-0.23858 -9.09145,-0.81451 -10.29615,-1.27984 -1.79963,-0.69514 -1.25384,-0.97601 3.05965,-1.57454 5.79577,-0.80421 6.34924,-1.54566 3,-4.01896 -2.24914,-1.66092 -2.24885,-1.6613 0.75,-0.99928 1.65,0.36426 5.025,0.77822 7.5,0.91991 2.475,0.1417 5.49913,0.79953 6.7203,1.46186 1.22116,0.66232 4.94237,1.41588 8.26935,1.67456 3.32698,0.25869 7.16336,1.20046 8.52529,2.09283 1.73735,1.13836 3.52582,1.42559 5.9937,0.96262 2.61573,-0.49072 3.66152,-0.28451 4.07935,0.80435 0.88963,2.31832 9.71096,3.1425 13.11079,1.22493 1.54067,-0.86897 4.15122,-2.0853 5.80122,-2.70295 l 3,-1.12302 -3.5,-1.30776 -3.5,-1.30775 6.09501,-0.0761 c 6.56019,-0.0819 7.88143,-0.9214 10.28557,-6.53543 1.0773,-2.51564 1.03366,-3.13019 -0.29109,-4.09887 -1.72705,-1.26282 -1.09853,-2.44175 1.30177,-2.44175 1.71674,0 8.10874,-6.69538 8.10874,-8.49359 0,-0.62166 1.35,-2.12839 3,-3.34829 2.18135,-1.61274 3,-3.04202 3,-5.23772 0,-6.61119 -4.22573,-10.54793 -19.55756,-18.22007 -6.82781,-3.41668 -10.30316,-6.17294 -9.18868,-7.28742 0.29632,-0.29632 3.84795,0.20315 7.8925,1.10994 13.45429,3.01646 12.85374,3.0065 12.85374,0.21309 0,-1.37008 -0.7362,-3.10204 -1.63601,-3.84882 -0.8998,-0.74677 -2.70545,-3.05187 -4.01254,-5.12244 -1.3071,-2.07057 -2.99537,-3.76468 -3.75172,-3.76468 -0.75635,0 -4.30248,1.36985 -7.8803,3.04411 -5.75898,2.69495 -13.40039,4.88055 -41.71509,11.93136 -4.12262,1.0266 -7.67452,1.68768 -7.89313,1.46907 -0.21861,-0.2186 0.45444,-0.68098 1.49566,-1.0275 1.04122,-0.34652 4.14313,-1.4412 6.89313,-2.43261 2.75,-0.99142 9.725,-3.25421 15.5,-5.02844 16.59149,-5.09731 19.34905,-6.15472 21.83465,-8.3727 1.28405,-1.14581 3.22501,-1.93768 4.31324,-1.75972 2.68239,0.43867 6.85211,-2.43968 6.85211,-4.72999 0,-1.02318 0.9,-2.09567 2,-2.38333 2.50044,-0.65388 2.70755,-5.44131 0.42626,-9.85284 -1.79661,-3.47427 -1.40864,-4.4374 1.23809,-3.07356 2.78684,1.43604 4.12173,0.48819 6.324,-4.49042 2.10668,-4.76251 2.53829,-7.29343 1.24378,-7.29343 -1.89465,0 -20.09761,14.05955 -21.07466,16.27759 -0.18839,0.42767 -4.00987,3.95188 -8.49217,7.83157 -5.92878,5.13171 -11.20956,8.53057 -19.37824,12.47242 -6.17573,2.98013 -11.69827,5.41842 -12.2723,5.41842 -0.57404,0 -4.94964,1.575 -9.72356,3.5 -4.77392,1.925 -9.34042,3.5 -10.14778,3.5 -0.80737,0 -9.60742,3.98372 -19.55568,8.85271 -9.94826,4.869 -22.13774,10.3287 -27.08774,12.13267 -24.9176,9.08096 -25.7058,9.42565 -26.534,11.60415 -0.4529,1.19119 -3.5555,4.31223 -6.8947,6.93565 -3.3392,2.62342 -6.0713,5.15347 -6.0713,5.62234 0,2.36919 4.514,0.21677 11.0819,-5.28421 7.4319,-6.22455 10.6137,-6.63144 4.9975,-0.63906 -3.5565,3.79472 -3.8039,4.77575 -1.2044,4.77575 4.4865,0 8.4156,-1.39531 8.8749,-3.15166 0.2659,-1.01659 0.8809,-1.84834 1.3667,-1.84834 0.4859,0 0.8834,-0.83026 0.8834,-1.84501 0,-2.40047 2.3403,-4.3797 8.5,-7.18862 3.89655,-1.77689 7.37242,-2.38022 15.75,-2.73385 10.70517,-0.45188 12.60901,-1.16724 8.68932,-3.265 -1.30408,-0.69792 -1.94662,-1.88831 -1.75,-3.24214 0.35056,-2.41392 3.75928,-3.8677 20.81068,-8.87551 5.775,-1.69605 12.75,-3.76102 15.5,-4.58881 7.14767,-2.15157 11.5,-2.67996 11.5,-1.39615 0,1.42346 -4.75412,3.83048 -13.31985,6.74388 -3.81528,1.29766 -7.44161,2.77641 -8.05851,3.28611 -0.6169,0.50969 -4.49664,1.13085 -8.62164,1.38033 -7.77657,0.47034 -13,1.9467 -13,3.67434 0,0.54949 1.29547,1.66898 2.87882,2.48776 2.89808,1.49866 4.55831,4.04636 3.62302,5.55969 -0.27756,0.4491 -4.89152,1.11939 -10.25324,1.48954 -13.82703,0.95455 -22.0402,2.33078 -24.83386,4.16126 -6.96164,4.56145 0.26331,4.91003 24.69171,1.19129 24.16781,-3.67906 36.01833,-3.9436 41.89355,-0.9352 6.49128,3.32385 4.65182,4.53072 -8,5.2488 -11.01054,0.62492 -18.29411,1.39136 -37,3.89343 -4.675,0.62532 -11.53848,0.86752 -15.25219,0.53822 -5.75833,-0.5106 -7.65538,-0.23173 -12.88841,1.89464 -3.3749,1.37135 -9.7478,2.94621 -14.1619,3.4997 -8.0877,1.01411 -12.6975,2.96474 -12.6975,5.37291 0,0.71802 1.3737,3.37943 3.0527,5.91423 4.1433,6.25527 4.581,9.98207 2.0257,17.24657 -1.9283,5.48181 -1.9691,6.08811 -0.4833,7.17756 2.175,1.59474 10.5294,0.61488 16.9049,-1.98272 z m 111.03649,-1.2217 c 0.0201,-1.64209 0.37192,-3.52833 0.78187,-4.19165 1.40243,-2.26919 -7.39712,-6.38154 -17.06836,-7.97667 -4.65601,-0.76794 -4.05325,1.01602 1.5,4.43954 2.6125,1.61058 6.325,4.76785 8.25,7.01617 4.0938,4.78136 6.48358,5.0419 6.53649,0.71261 z M 98.888871,697.55226 c 0.333,-0.53886 -3.9862,-5.37636 -9.5983,-10.75 -5.6121,-5.37364 -12.8507,-13.11624 -16.0857,-17.20578 -3.2351,-4.08954 -9.8018,-11.55989 -14.5927,-16.60077 -4.791,-5.04089 -11.4108,-12.22284 -14.7108,-15.95989 -3.3,-3.73705 -8.7,-9.82837 -12,-13.53626 -7.5436,-8.47604 -11.1993,-12.71166 -15,-17.37963 -1.65,-2.0265 -5.9364,-7.15031 -9.5253001,-11.38624 -3.589,-4.23593 -7.70420005,-9.27669 -9.145,-11.20169 -1.4407,-1.925 -11.2574999,-12.275 -21.8149999,-23 -10.5574,-10.725 -20.5176,-20.99289 -22.1338,-22.81754 -3.4236,-3.86532 -8.329995,-5.0675 -12.920895,-3.1659 -3.673,1.52142 -8.16,9.58432 -8.16,14.66318 0,5.15548 7.0365,12.98931 44.300595,49.32026 18.3340999,17.875 46.8493,46.04052 63.3671,62.59003 16.5178,16.54952 31.7132,31.33537 33.7675,32.85743 2.3128,1.71352 5.7402,3.0598 9,3.53521 7.7764,1.1341 14.5643,1.15083 15.2523,0.0376 z M 173.20138,691.332 c 2.101,-2.10105 1.4657,-4.11626 -1.05,-3.33041 -1.2375,0.38657 -3.0286,0.69269 -3.9803,0.68027 -2.0133,-0.0263 -3.1586,1.41191 -2.2697,2.85014 0.8593,1.39033 5.8463,1.2537 7.3,-0.2 z m -6.7175,-9.60501 c 0.7443,-1.48225 1.5323,-3.07619 1.7511,-3.5421 0.4458,-0.94927 -2.354,0.54609 -5.209,2.78218 -2.0899,1.63677 -1.5253,4.84777 0.7021,3.99306 0.7713,-0.29598 2.0114,-1.7509 2.7558,-3.23314 z m 8.1675,-1.00208 c 1.9165,-1.64585 2.2987,-3.19291 0.789,-3.19291 -1.1669,0 -5.039,4.03244 -5.039,5.24758 0,0.97873 1.6424,0.1847 4.25,-2.05467 z m -27.69111,-7.72471 c -2.5266,-1.91098 -4.1545,-1.89075 -2.5589,0.0318 0.6847,0.825 1.9773,1.48569 2.8724,1.4682 1.3674,-0.0267 1.3172,-0.26656 -0.3135,-1.5 z M 249.40138,639.032 c 1.01247,-1.21995 0.96484,-1.5 -0.25511,-1.5 -0.825,0 -2.0602,0.675 -2.74489,1.5 -1.01247,1.21995 -0.96484,1.5 0.25511,1.5 0.825,0 2.0602,-0.675 2.74489,-1.5 z m 24.59765,-9.23568 c -0.59277,-0.59277 -3.59765,0.95337 -3.59765,1.85114 0,0.49582 0.87953,0.35221 1.95452,-0.31913 1.07499,-0.67134 1.8144,-1.36075 1.64313,-1.53201 z m 18.90235,-8.90431 c 5.5,-3.04164 10.6452,-5.8597 11.43377,-6.26235 0.78858,-0.40264 2.47474,-2.37687 3.74703,-4.38717 l 2.31326,-3.65509 -5.24703,3.08831 c -2.88587,1.69857 -6.37203,3.8384 -7.74703,4.75518 -1.375,0.91678 -4.075,2.40525 -6,3.30771 -5.06751,2.37572 -13.29719,8.08491 -13.76805,9.55134 -0.59051,1.83907 3.389,0.1715 15.26805,-6.39793 z m 24.4705,-14.82447 c 0.66847,-0.80545 3.76107,-3.11842 6.87245,-5.13994 3.11138,-2.02152 6.14887,-4.27687 6.74999,-5.01189 1.9412,-2.37359 13.49183,-11.27584 15.42749,-11.89019 1.91553,-0.60797 3.64857,-4.15786 2.56086,-5.24556 -1.12535,-1.12535 -6.38267,2.23772 -13.68163,8.75204 -12.00482,10.7143 -21.40074,20 -20.23739,20 0.60106,0 1.63977,-0.65901 2.30823,-1.46446 z m 18.12325,-20.74235 c 1.42657,-0.899 3.97945,-3.02024 5.67308,-4.71387 1.69363,-1.69362 3.47975,-3.07932 3.96916,-3.07932 0.4894,0 2.18605,-1.35297 3.77033,-3.00659 2.04704,-2.13665 2.57071,-3.31638 1.80985,-4.07724 -0.76086,-0.76086 -2.04654,-0.24337 -4.44341,1.78849 -1.85502,1.57253 -5.17276,4.179 -7.37276,5.79217 -5.68418,4.16796 -14.5,12.9669 -14.5,14.47224 0,0.69952 1.9125,-0.26112 4.25,-2.13474 2.3375,-1.87363 5.41719,-4.14215 6.84375,-5.04114 z m 5.60656,-13.05722 c 0.43983,-0.69522 3.42551,-3.04642 6.63485,-5.22488 6.25036,-4.24266 8.49522,-7.08071 6.87911,-8.69682 -1.37767,-1.37767 -16.04772,11.71226 -16.17831,14.43573 -0.0583,1.21549 1.79656,0.85763 2.66435,-0.51403 z m 9.80978,-15.96114 c 4.4713,-4.20765 5.41233,-5.77483 3.46757,-5.77483 -1.61885,0 -10.01251,8.1346 -9.4061,9.11579 0.83553,1.35191 1.12419,1.18951 5.93853,-3.34096 z m -1.89768,-4.30604 c 0.91218,-1.39216 1.4579,-2.73181 1.21272,-2.977 -0.80274,-0.80274 -4.82513,2.58591 -4.82513,4.06491 0,2.24172 1.78248,1.70491 3.61241,-1.08791 z m 3.31501,-9.10365 c 1.13992,-1.44917 2.07258,-3.37551 2.07258,-4.28076 0,-0.90525 1.28537,-2.13108 2.85638,-2.72407 1.59663,-0.60266 3.58127,-2.53123 4.5,-4.37287 2.70152,-5.41533 1.88189,-5.75879 -2.35638,-0.98744 -5.69815,6.41486 -4.95609,3.51908 1,-3.90235 4.44157,-5.53429 6.37995,-10.13137 4.25,-10.07932 -0.4125,0.0101 -3.80555,2.87195 -7.54011,6.35973 -5.28692,4.93755 -6.88296,7.09194 -7.20956,9.73167 -1.74045,14.06737 -1.47007,15.20984 2.42709,10.25541 z m 5.5759,-0.37052 c 1.15561,-1.86981 -1.18982,-0.99859 -3.09833,1.15089 -1.89176,2.13061 -1.88975,2.13752 0.28932,0.99462 1.20687,-0.63299 2.47092,-1.59847 2.80901,-2.14551 z M 87.928071,540.5183 c 0.017,-0.94668 0.8536,-1.39634 2.304,-1.23853 1.2525,0.13628 3.4904,-0.37726 4.9733,-1.1412 3.4432,-1.77393 16.010399,-3.54265 23.423399,-3.29664 6.0474,0.20069 7.6992,-1.23454 3.0036,-2.60974 -6.0112,-1.76049 -20.0346,-4.07756 -25.038399,-4.13707 -4.2772,-0.0509 -5.6359,0.35266 -7,2.07892 -2.419,3.06137 -7.4898,5.35796 -11.83,5.35796 l -3.7368,0 2.8231,2.9467 c 3.7024,3.86441 11.0208,5.21184 11.0778,2.0396 z m -19.0267,-8.57713 c -3.717,-3.12089 -9.8857,-6.40917 -12.0235,-6.40917 -1.2064,0 -1.5257,0.80449 -1.2899,3.25 0.3018,3.13009 0.5048,3.26926 5.502,3.77198 2.8538,0.28708 5.5163,0.84958 5.9167,1.25 0.4004,0.40041 1.6655,0.71184 2.8114,0.69206 1.8775,-0.0324 1.7869,-0.28484 -0.9167,-2.55487 z M 368.86989,506.032 c 1.29968,-1.65 2.64319,-4.8 2.98557,-7 l 0.62252,-4 -2.2883,2.90265 c -1.25857,1.59646 -4.0883,5.12794 -6.2883,7.84774 -2.2,2.7198 -4.76719,5.9136 -5.70487,7.09735 -0.93768,1.18374 -1.98398,3.50226 -2.32511,5.15226 -0.57542,2.78323 -0.21359,2.56647 5.0076,-3 3.09531,-3.3 6.69121,-7.35 7.99089,-9 z m -324.056519,3.75 c -0.4596,-5.27219 -1.1806,-7.49817 -3.2935,-10.16729 -1.4878,-1.87951 -3.1356,-3.32156 -3.6618,-3.20455 -1.268,0.28197 -0.6088,4.06658 1.1443,6.5695 0.7694,1.09855 1.4089,2.68472 1.421,3.52485 0.026,1.82944 3.6475,10.02749 4.4293,10.02749 0.3019,0 0.2843,-3.0375 -0.039,-6.75 z m 183.551469,249.5 c -1.98205,-3.20937 -1.97868,-4.94957 0.0198,-10.2059 0.77342,-2.03424 1.64597,-2.5441 4.35388,-2.5441 1.9665,0 6.52604,-1.61488 10.8734,-3.85109 4.11775,-2.1181 9.72437,-4.14792 12.45916,-4.5107 4.63155,-0.6144 5.23529,-0.43232 8.80858,2.65654 5.21073,4.50433 4.48593,7.26344 -3.441,13.09891 -6.55709,4.82704 -18.13698,8.60634 -26.37008,8.60634 -4.22034,0 -4.90013,-0.32957 -6.70374,-3.25 z M 193.63648,617.26099 c -0.5362,-0.67595 -1.0343,-7.07899 -1.1069,-14.22899 -0.1854,-18.27074 2.9253,-38.02709 7.3079,-46.41283 0.981,-1.87706 2.6074,-5.80694 3.6141,-8.73308 1.6939,-4.92353 4.164,-8.96112 11.16521,-18.25103 1.49347,-1.98168 4.49174,-6.1081 6.66282,-9.16981 4.51329,-6.36478 27.63531,-29.98355 33.62354,-34.34592 5.5221,-4.02279 10.49823,-9.29098 10.49823,-11.1144 0,-0.83734 1.06806,-1.92851 2.37346,-2.42482 1.3054,-0.49631 7.63303,-6.78518 14.0614,-13.97525 6.42836,-7.19007 12.03531,-13.07286 12.45987,-13.07286 3.98272,0 -1.33951,8.15628 -12.45536,19.08774 -5.26406,5.17674 -12.5789,12.46909 -16.25519,16.20522 -3.6763,3.73613 -9.37709,9.36113 -12.66842,12.5 -21.71595,20.71001 -38.51576,40.45382 -38.51576,45.26527 0,0.5329 -0.44773,1.7503 -0.99496,2.70534 -2.22082,3.87582 -8.87154,26.13508 -9.48244,31.73643 -0.3598,3.3 -1.5246,9.93274 -2.5884,14.73941 -1.0638,4.80668 -1.9342,11.83793 -1.9342,15.625 0,3.78708 -0.2844,8.30782 -0.6321,10.04611 -0.7217,3.60871 -3.6004,5.75024 -5.1328,3.81847 z M 70.411071,610.782 c 0.01,-0.4125 1.552,-2.69004 3.4371,-5.0612 1.885,-2.37117 3.5682,-4.63373 3.7403,-5.02793 0.5337,-1.22234 12.6591,-6.26193 16.5866,-6.89377 5.914599,-0.95151 2.7594,1.70298 -6.8552,5.76734 -6.2709,2.65088 -9.0094,4.46024 -11.6759,7.71435 -3.2322,3.94455 -5.2562,5.2987 -5.2329,3.50121 z m 55.990299,-7.27555 c -0.825,-0.5472 -4.5375,-1.93414 -8.25,-3.08209 -6.7117,-2.07531 -9.2633,-4.89236 -4.4315,-4.89236 6.3598,0 18.5674,5.75756 17.132,8.08007 -0.736,1.19097 -2.561,1.14766 -4.4505,-0.10562 z m 17.3994,-1.13723 c -0.4247,-0.68719 0.6759,-2.31126 2.691,-3.97069 8.79871,-7.24594 11.21161,-9.66787 13.56581,-13.61653 4.3284,-7.25996 6.0077,-4.76791 2.2187,3.29264 -1.1687,2.48646 -3.0812,5.01942 -4.25,5.62879 -1.1687,0.60937 -4.2431,3.07009 -6.8321,5.46826 -4.93061,4.56734 -6.20591,5.11889 -7.39341,3.19753 z M 81.033771,588.0721 c -3.2272,-1.32683 -6.9807,-3.45365 -8.3413,-4.72626 -3.1531,-2.94945 -6.3142,-9.43821 -6.2121,-12.75167 0.048,-1.55267 0.301,-1.97117 0.6425,-1.06217 1.4782,3.9338 4.913,7.24156 10.0366,9.66543 5.2263,2.47241 5.7992,2.55129 8.2626,1.13749 2.1452,-1.23121 2.9704,-1.28257 4.3538,-0.271 2.325,1.70004 11.421499,1.23514 15.214499,-0.77758 3.3665,-1.78646 14.411,-13.22064 14.411,-14.91955 0,-1.65555 9.8264,-13.57495 13.1312,-15.92823 5.1038,-3.63424 4.4391,-1.18526 -1.3161,4.84839 -3.6394,3.81555 -5.7313,6.95099 -6.1764,9.25739 -1.0472,5.42656 -9.5135,17.00674 -15.1444,20.71443 -5.6281,3.70589 -15.469599,7.28421 -19.938499,7.24949 -1.6807,-0.0131 -5.6962,-1.10932 -8.9234,-2.43616 z m 4.6805,-69.5401 c 0.3629,-1.375 0.6659,-3.2875 0.6734,-4.25 0.01,-0.9625 0.4637,-1.75 1.0137,-1.75 1.6576,0 1.1234,5.65391 -0.6734,7.12756 -1.5025,1.23227 -1.6061,1.11711 -1.0137,-1.12756 z m 26.407499,-39.46391 c -3.1788,-2.98107 -6.6654,-5.70123 -7.7478,-6.0448 -1.1657,-0.36995 -5.220899,0.67335 -9.945299,2.55864 -7.3464,2.93161 -11.0273,3.31655 -11.0273,1.15321 0,-0.98359 17.159599,-8.20314 19.497399,-8.20314 3.9654,0 17.3423,11.30066 17.46,14.75 0.084,2.46582 -2.5526,1.11695 -8.237,-4.21391 z m -78.235499,3.43951 c -0.9114,-1.47474 0.3355,-6.34155 3.2631,-12.73635 3.2119,-7.01565 5.1168,-9.23925 7.9152,-9.23925 3.6091,0 3.5495,1.6004 -0.1652,4.43371 -1.9153,1.46092 -3.7877,3.87349 -4.1607,5.36126 -0.7531,3.00337 -5.2738,13.20503 -5.8516,13.20503 -0.2022,0 -0.6526,-0.46098 -1.0008,-1.0244 z m 16.5151,-22.26713 c 0,-0.71966 0.4286,-1.73711 0.9525,-2.26101 0.5239,-0.52389 1.4684,-4.27709 2.0988,-8.34044 1.0569,-6.8113 3.8353,-16.22836 8.883,-30.10702 2.2981,-6.31865 2.6226,-10.88129 0.8157,-11.4701 -0.6875,-0.22403 -5.0917,-0.65572 -9.7872,-0.95932 -11.8243,-0.76453 -21.9145,-3.95225 -19.6567,-6.21001 0.2785,-0.2785 2.0111,-0.11076 3.8501,0.37276 3.9118,1.02845 7.1067,0.55542 6.5961,-0.97656 -0.1972,-0.5914 -2.6971,-1.96387 -5.5554,-3.04994 -2.8583,-1.08607 -5.1969,-2.37298 -5.1969,-2.8598 0,-0.88439 3.4463,-0.31139 7.8151,1.2994 3.8768,1.42936 12.1704,0.87441 22.6849,-1.51791 8.2393,-1.87466 10.0515,-2.62191 10.2923,-4.24421 0.2306,-1.55275 -1.3548,-2.82079 -7.5,-5.99877 -7.1004,-3.67201 -8.1697,-3.95159 -12.0423,-3.14883 -3.9591,0.82068 -4.25,1.10594 -4.25,4.16715 0,4.95151 -2.7806,7.00915 -7.6508,5.66165 -5.9699,-1.65175 -6.7778,-2.51208 -6.8152,-7.25803 l -0.034,-4.30748 -5.2068,0.33802 c -8.0409,0.52202 -20.2932,-4.60573 -20.2932,-8.49301 0,-1.71732 0.4304,-1.69092 4.1983,0.25754 1.7045,0.8814 6.1657,2.02753 9.9139,2.54695 5.7606,0.79829 7.2089,0.68622 9.3617,-0.72438 2.0692,-1.35579 4.186,-1.5709 11.2865,-1.14698 10.4227,0.62228 14.5103,1.76259 20.3307,5.67159 2.4004,1.61217 4.6006,2.54912 4.8892,2.08211 0.2887,-0.46701 1.7105,-0.62245 3.1596,-0.34542 2.1353,0.40818 2.7477,1.209 3.2297,4.22343 1.1775,7.36389 -2.4305,22.93438 -8.524,36.78529 -1.0151,2.30732 -1.8556,4.78232 -1.8678,5.5 -0.012,0.71767 -0.9023,2.42986 -1.9778,3.80486 -1.0755,1.375 -1.9655,3.32502 -1.9778,4.33339 -0.043,3.56083 -4.2109,18.21317 -6.1789,21.72316 -2.242,3.99866 -5.8433,6.86568 -5.8433,4.65192 z m 20.7552,-57.95847 c 0.55,-0.6875 1.3111,-2.26472 1.6914,-3.50493 0.9365,-3.05468 -1.5867,-3.92333 -6.8497,-2.35813 -3.6337,1.08065 -7.9593,2.11722 -15.3878,3.68745 -4.5885,0.96991 -1.0248,2.23047 6.3879,2.25954 4.18,0.0164 7.8557,0.28547 8.1682,0.59794 1.0363,1.03631 4.974,0.58806 5.99,-0.68187 z m -17.7552,-25.64159 c 0,-1.13193 -4.7716,-2.3676 -6.0623,-1.56991 -0.5337,0.32983 -0.7114,1.0186 -0.395,1.5306 0.7354,1.1899 6.4573,1.22473 6.4573,0.0393 z m 321.452259,75.24557 c -4.62536,-4.99085 -3.03948,-9.68826 4.77496,-14.14353 8.33751,-4.75349 12.77279,-9.22024 12.77279,-12.86341 0,-3.17727 -1.6792,-5.33016 -4.47778,-5.7409 -0.86747,-0.12732 -1.55945,-0.65328 -1.53775,-1.16881 0.10137,-2.40854 1.28231,-4.43733 2.58292,-4.43733 1.76342,0 1.89047,-1.64093 0.18261,-2.35863 -0.88433,-0.37162 -0.71669,-0.8613 0.57303,-1.67389 1.60145,-1.00899 1.64812,-1.3503 0.38395,-2.80804 -0.79149,-0.91269 -1.71198,-3.90944 -2.04552,-6.65944 -0.33354,-2.75 -0.89931,-6.66662 -1.25726,-8.70361 -0.56864,-3.23588 -0.2661,-4.08834 2.39556,-6.75 1.81895,-1.81894 4.08468,-3.04639 5.62332,-3.04639 2.42835,0 2.57692,-0.29056 2.57692,-5.03984 0,-5.74754 2.86044,-12.27992 6.14755,-14.03913 1.17756,-0.63021 3.98859,-2.84063 6.24674,-4.91204 5.20867,-4.77795 19.40908,-10.71995 29.75741,-12.45165 4.48542,-0.7506 6.51373,0.95914 7.38467,6.22481 0.33821,2.04482 1.10005,4.99053 1.69298,6.54602 0.59292,1.55549 1.02163,8.19299 0.95268,14.75 -0.0733,6.97365 0.27001,11.92183 0.82725,11.92183 1.7709,0 2.19293,-4.88042 1.74829,-20.21772 -0.37808,-13.04114 -0.75941,-15.93309 -2.60031,-19.72011 -1.18649,-2.44081 -2.15726,-5.40856 -2.15726,-6.59501 0,-3.39085 -3.10362,-5.46716 -8.17219,-5.46716 -9.453,0 -23.34334,6.54844 -39.52876,18.63537 -11.52925,8.60979 -14.29905,9.84266 -14.29905,6.36463 0,-1.1 0.47448,-2 1.05439,-2 0.57992,0 4.10012,-2.5875 7.82268,-5.75 3.72255,-3.1625 8.08558,-6.71865 9.6956,-7.90256 2.63025,-1.93412 2.74116,-2.22734 1.09289,-2.88939 -1.40898,-0.56594 -3.38034,0.76602 -8.5,5.74308 -8.74598,8.50239 -11.91476,10.79887 -14.90076,10.79887 -2.29994,0 -2.11596,-0.38244 2.73995,-5.69558 10.56251,-11.55707 10.80745,-14.87023 0.35605,-4.81617 -7.76613,7.4709 -14.82969,12.51175 -17.53224,12.51175 -2.35783,0 -2.34026,-1.52812 0.0367,-3.1933 1.0259,-0.71868 3.27128,-3.3317 4.98975,-5.8067 1.71846,-2.475 4.50071,-6.46014 6.18278,-8.85587 1.68206,-2.39574 2.89771,-4.83762 2.70145,-5.42641 -0.19626,-0.58879 -4.15538,3.88946 -8.79804,9.95168 -9.29372,12.1354 -11.87978,14.60463 -13.95341,13.32306 -1.05084,-0.64946 -0.51274,-1.77588 2.37568,-4.97302 2.05384,-2.27335 5.39976,-6.64722 7.43539,-9.7197 2.03563,-3.07249 4.37614,-6.60644 5.20114,-7.85322 10.38297,-15.69131 14.00206,-24.37831 7.82874,-18.79153 -2.50379,2.26589 -2.39009,0.74891 0.68613,-9.15499 3.07814,-9.9101 3.11484,-13.2711 0.1922,-17.6021 -2.2792,-3.3776 -2.3376,-3.3972 -9.75,-3.282 -7.44619,0.1157 -21.44954,3.6545 -32.64131,8.2488 -2.64867,1.0873 -7.96576,2.9366 -11.81576,4.1096 -3.85,1.173 -8.125,2.9111 -9.5,3.8626 -5.27009,3.6467 -11.0513,5.61216 -12.97464,4.411 -0.99536,-0.6216 -2.12149,-0.8192 -2.50251,-0.439 -0.38103,0.3801 -2.56705,0.7566 -4.85782,0.8367 -4.35134,0.1522 -9.89977,1.24441 -22.94081,4.51586 -15.29078,3.83581 -32.44063,6.73226 -53.72422,9.07351 -16.8751,1.8563 -103.96521,1.47025 -117.48571,-0.52079 -5.492199,-0.80878 -10.560399,-1.24999 -11.262799,-0.98047 -0.7023,0.26952 -1.8337,0.0423 -2.5142,-0.50503 -0.6805,-0.54729 -3.6393,-1.50136 -6.5752,-2.12016 -5.0973,-1.07439 -18.7951,-5.55445 -37.1621,-12.15432 -14.0476,-5.0478 -14.9704,-5.3172 -15.7032,-4.5843 -0.3877,0.3877 -0.8163,4.2858 -0.9525,8.66248 -0.2279,7.32585 -0.9933,11.69408 -2.8408,16.21235 -0.5801,1.41856 0.4746,2.27897 5.6415,4.60254 3.4953,1.5718 8.1126,4.0541 10.2607,5.51623 5.5488,3.77683 5.9358,2.20097 0.5932,-2.41594 -5.4077,-4.67326 -3.366,-5.28835 3.1742,-0.95627 4.8874,3.23725 7.7875,5.83206 12.0846,10.81249 2.0589,2.38631 3.5899,3.19622 6.0418,3.19622 6.1824,0 15.6946,12.89995 15.987,21.68081 0.074,2.23713 -0.6198,3.78483 -2.3403,5.21673 -3.2234,2.68279 -3.373,2.64455 -4.4894,-1.14754 -0.8798,-2.98855 -1.2613,-3.23197 -4.7414,-3.02589 -3.1508,0.18657 -3.9331,-0.16642 -4.6713,-2.10799 -0.4876,-1.28266 -2.7221,-3.28878 -4.9654,-4.45806 -3.7173,-1.93761 -4.0773,-1.97234 -4.0634,-0.39201 0.021,2.35273 0.8847,3.42563 4.9847,6.1908 4.4392,2.99389 10,8.16895 10,9.30627 0,0.47893 -1.9125,-0.67486 -4.25,-2.56398 -5.1591,-4.16944 -7.994,-5.69914 -10.5618,-5.69914 -1.0688,0 -2.5035,-0.675 -3.1882,-1.5 -1.7115,-2.06222 -12.746,-1.98557 -18.0213,0.12518 -4.122,1.6493 -5.7455,1.42458 -4.4817,-0.62033 1.1427,-1.8489 5.5978,-3.2346 12.503,-3.88893 3.575,-0.33875 6.5,-1.06592 6.5,-1.61592 0,-0.55 -2.1244,-2.95774 -4.7209,-5.35053 -4.3281,-3.98859 -4.854,-4.21738 -6.3214,-2.75 -1.89,1.88996 -2.0183,1.90607 -4.5193,0.56755 -1.5116,-0.80899 -2.6009,-0.53795 -5.0233,1.25 -2.583,1.9065 -4.1564,2.24202 -9.5408,2.03457 -6.6589,-0.25654 -11.3588001,-2.07559 -16.7017001,-6.4643 -2.33040005,-1.91423 -2.70490005,-2.81033 -2.13070005,-5.09825 0.664,-2.64565 0.9021,-2.745 5.07740005,-2.11888 4.1777,0.62649 4.3807,0.5415 4.3807,-1.83417 0,-1.37011 -0.67,-3.04719 -1.489,-3.72685 -1.7085,-1.41798 -1.0905,-3.16876 0.855,-2.42218 0.7399,0.28393 2.5117001,-1.24594 4.1040001,-3.54367 1.5411,-2.22381 3.1054,-4.04329 3.4762,-4.04329 0.3707,0 2.1095,-1.4034 3.864,-3.11866 2.568,-2.5107 3.19,-3.92403 3.1906,-7.25 5e-4,-2.27224 0.6744,-7.35986 1.4976,-11.30584 0.8232,-3.946 1.2499,-7.771 0.9482,-8.5 -0.6264,-1.5138 -3.224,-3.3374 -16.1990001,-11.3723 -5.0888,-3.1513 -11.7355,-7.9026 -14.7704,-10.5584 -6.5665999,-5.7463 -11.4567999,-7.3257 -19.7147999,-6.3672 -5.5799,0.6476 -6.1002,0.523 -8.8611,-2.1222 -3.4078,-3.2648 -5.4597,-9.4936 -4.016,-12.1911 1.023,-1.9114 11.448,-12.2393 16.8804,-16.7231 3.0091,-2.4836 7.5521,-4.4439 22.2342999,-9.5941 9.6778001,-3.3947 18.0000001,-7.3083 18.0000001,-8.4646 0,-1.7498 3.0673,-3.9341 8.1618,-5.8121 4.7681,-1.7576 6.7117,-4.1469 4.871,-5.9876 -1.5122,-1.5122 -1.2601,-7.1992 0.3793,-8.5599 0.7767,-0.6446 1.9488,-3.5122 2.6046,-6.3724 0.6558,-2.8603 2.7203,-8.4802 4.5878,-12.4887 1.8675,-4.0084 3.3955,-7.5404 3.3955,-7.8488 0,-0.3084 0.6314,-1.9788 1.4032,-3.7119 0.7717,-1.7331 2.5015,-5.6261 3.8439,-8.6511 1.3424,-3.025 3.6595,-7.285 5.1491,-9.4666 1.4896,-2.1817 4.0468,-6.7709 5.6825,-10.1983 1.6358,-3.4275 5.1269,-8.6175 7.758,-11.5334 2.6311,-2.9159 5.8439,-7.1017 7.1394,-9.3017 4.5264,-7.6866 15.3258,-23.570004 16.5097,-24.282004 0.6567,-0.3949 2.382,-2.743 3.834,-5.218 6.415099,-10.9346 21.822399,-25.238 38.040399,-35.3149 3.3769,-2.0982 7.8635,-5.1859 9.9702,-6.8617 2.1067,-1.6758 6.0696,-3.6375 8.80641,-4.3595 2.7368,-0.7219 5.5131,-1.7371 6.1696,-2.2559 0.6565,-0.5189 3.4862,-1.6909 6.2884,-2.6045 2.8021,-0.9136 6.602,-2.7731 8.4442,-4.1323 1.8423,-1.3592 4.5556,-2.4712 6.0295,-2.4712 1.4741,0 4.6491,-0.706402 7.0558,-1.569702 2.4066,-0.8634 7.7507,-1.9793 11.8757,-2.4797 10.5869,-1.2845 18.19673,-2.7026 28,-5.218 6.86243,-1.7607 11.40838,-2.1859 23.59631,-2.2068 10.11523,-0.017 15.56272,0.3613 16.5099,1.1474 0.77747,0.6452 4.33413,1.4688 7.90369,1.8301 3.56955,0.3612 8.18671,1.2958 10.26034,2.0768 2.07363,0.7809 4.89601,1.4199 6.27195,1.4199 1.37595,0 5.50807,1.3631 9.18248,3.0292 3.67442,1.6661 7.27629,2.800702 8.00415,2.521402 0.72787,-0.2793 5.02415,0.3794 9.54729,1.4638 4.52314,1.0844 9.59639,1.9747 11.27389,1.9786 1.6775,0 3.4775,0.3986 4,0.8772 0.5225,0.4787 4.325,1.8723 8.45,3.097 4.125,1.2247 7.95,2.5837 8.5,3.02 0.55,0.4363 4.825,2.3725 9.5,4.3028 4.675,1.9302 10.525,4.6492 13,6.0422 2.475,1.3929 7.14479,3.9186 10.3773,5.6125 5.38527,2.822 27.77627,20.371 36.95743,28.9656 2.10911,1.9743 4.66558,5.1647 5.68105,7.0897 1.01548,1.925 3.58212,5.300004 5.70366,7.500004 12.35303,12.8099 15.93897,21.8385 17.67438,44.5 1.11578,14.5702 1.42259,16.0399 5.11467,24.5 3.48536,7.9864 3.92915,9.9009 3.94065,17 0.007,4.4381 -0.70236,10.4488 -1.59364,13.5 -3.04317,10.4179 -3.111,17.0853 -0.2565,25.2114 2.41165,6.8655 3.01439,9.0383 5.42382,19.5529 1.32899,5.7997 1.23624,27.9133 -0.14443,34.4365 -1.86295,8.8017 -3.21927,10.6367 -8.12423,10.9915 -3.62682,0.2623 -4.20279,0.6026 -3.90579,2.3077 1.50178,8.6218 1.30872,10.3849 -1.86548,17.03586 -1.76238,3.69273 -4.53217,8.10352 -6.15509,9.80175 l -2.95076,3.08768 3.36024,1.03736 c 4.9112,1.51615 7.52757,3.73862 8.33726,7.08207 0.39363,1.6254 1.99208,5.88028 3.55212,9.45528 6.5023,14.9007 6.57593,41.69787 0.15526,56.5 -2.3972,5.52645 -10.55379,15.56147 -11.70933,14.40592 -0.27367,-0.27367 1.50201,-4.52696 3.94595,-9.45175 2.44395,-4.92479 4.43997,-10.30417 4.4356,-11.95417 l -0.008,-3 -2.89616,3.49361 c -3.4099,4.11332 -4.36992,3.74875 -3.01835,-1.14622 1.14583,-4.14984 1.78749,-28.32915 0.77907,-29.35682 -1.20451,-1.22748 -9.52202,2.59643 -12.47098,5.73344 l -2.83978,3.02086 3,-0.48101 c 1.65,-0.26455 3.78371,-0.81633 4.74157,-1.22618 1.20061,-0.51372 1.94823,-0.20666 2.40688,0.98857 0.48208,1.25629 -0.47948,2.68467 -3.49157,5.18669 -4.60516,3.8253 -5.18775,5.28706 -2.10719,5.28706 2.8447,0 1.50537,2.09172 -3.79969,5.93423 -6.18547,4.4802 -5.20447,7.00894 1.38569,3.57193 6.67462,-3.48105 9.21756,-0.26708 3.56185,4.50173 l -3.69754,3.11772 3.67202,-0.59349 c 5.16651,-0.83503 5.41093,0.61646 0.80073,4.75513 -4.75108,4.26513 -4.99826,5.51688 -0.97275,4.92606 3.53394,-0.51867 3.76678,0.54216 0.91481,4.16786 -1.6682,2.12078 -1.95132,3.44325 -1.41577,6.61313 1.14983,6.80581 -0.0868,9.54916 -6.50495,14.43017 -8.02545,6.1034 -10.93806,7.45899 -18.14372,8.44443 -4.62542,0.63256 -6.74549,1.4599 -8.30331,3.24028 -3.94158,4.5047 -9.39799,7.87741 -15.18114,9.38373 -7.64013,1.99 -8.05389,1.94682 -10.91367,-1.13893 z M 413.61797,435.282 c 10.32012,-6.17701 11.6363,-7.21231 14.20459,-11.17321 2.70846,-4.17707 3.27496,-6.57679 1.55257,-6.57679 -0.56444,0 -3.74033,2.5841 -7.05753,5.74244 -3.3172,3.15835 -6.79289,6.15347 -7.72375,6.65583 -3.12236,1.68506 -9.19247,6.76023 -9.19247,7.68576 0,1.71177 2.77339,0.92395 8.21659,-2.33403 z m -14.58049,-42.44723 c -0.40966,-0.40967 -1.16349,-0.0829 -1.67516,0.72619 -1.53967,2.43457 -1.07785,3.51652 0.72954,1.70914 0.92976,-0.92977 1.35529,-2.02566 0.94562,-2.43533 z m -1.67674,-8.05277 c 0.0855,-2.62986 -1.99699,-1.0755 -3.93602,2.93783 -1.11284,2.30331 -2.02334,4.42381 -2.02334,4.71223 0,1.12619 5.92115,-6.47482 5.95936,-7.65006 z m 28.32388,-21.90581 c 2.86922,-1.4607 4.63925,-2.8532 3.93341,-3.09445 -1.6371,-0.55955 -10.21665,3.43384 -10.21665,4.75538 0,1.42243 0.47146,1.2978 6.28324,-1.66093 z m 14.21676,-6.551 c 0.69865,-0.74426 0.24664,-0.87772 -1.5,-0.44289 -1.375,0.34232 -3.0625,0.62854 -3.75,0.63605 -0.6875,0.008 -1.25,0.51243 -1.25,1.12206 0,1.31405 4.97724,0.30695 6.5,-1.31522 z M 31.873571,334.0844 c -2.7103,-3.55339 -6.3887,-5.34007 -8.4154,-4.08753 -1.4689,0.90788 -1.3268,3.52904 0.1932,3.5633 0.6875,0.0155 3.275,1.07878 5.75,2.36285 2.475,1.28408 4.6579,2.20096 4.851,2.03751 0.193,-0.16344 -0.8774,-1.9077 -2.3788,-3.87613 z m -7.9311,1.51413 c -0.8092,-1.30936 -3.5411,-1.41725 -3.5411,-0.13985 0,0.50967 0.7875,1.10184 1.75,1.31593 2.1823,0.48541 2.6345,0.1885 1.7911,-1.17608 z M 421.90138,330.532 c 0.33992,-0.55 0.16803,-1 -0.38197,-1 -0.55,0 -1.27811,0.45 -1.61803,1 -0.33992,0.55 -0.16803,1 0.38197,1 0.55,0 1.27811,-0.45 1.61803,-1 z m -213.2659,-14.46929 c 12.29481,-1.30316 30.7183,-3.86986 46.7659,-6.51527 2.475,-0.408 9.675,-2.09167 16,-3.74154 6.325,-1.6498 15.1,-3.7714 19.5,-4.7147 9.72155,-2.0842 17.02628,-4.1963 38.5,-11.1322 9.075,-2.9312 18.71414,-5.9188 21.42032,-6.6392 7.57225,-2.0156 6.78336,-3.393 -2.62902,-4.5903 -7.06709,-0.8989 -26.65659,-4.9577 -38.7913,-8.0372 -5.81522,-1.4758 -27.03738,-9.7404 -34.5,-13.4355 -3.85,-1.9063 -8.125,-3.8009 -9.5,-4.2102 -1.375,-0.4094 -6.325,-2.4649 -11,-4.5678 -23.00325,-10.3476 -33.84717,-14.1959 -53.8474,-19.1097 -18.5483,-4.557 -21.6845,-5.0578 -30.7804,-4.9148 -6.9807,0.1098 -11.3311,-0.3092 -14,-1.3485 -5.74481,-2.2369 -31.58431,-8.5738 -34.96091,-8.5738 -1.6085,0 -4.4965,-0.4673 -6.4179,-1.0384 -22.426999,-6.6662 -66.333699,-7.8243 -75.346099,-1.9874 -1.731,1.1211 -4.8348,2.7788 -6.8973,3.6838 -3.779,1.6581 -4.9003,3.9633 -2.3954,4.9246 0.745,0.2859 3.7825,-0.403 6.75,-1.5309 6.405,-2.4344 6.8954,-2.4798 6.8954,-0.6375 0,3.4745 -20.7309,12.5798 -28.668,12.5914 -5.6216001,0.01 -10.6026001,1.6021 -22.2206001,7.1108 -10.1863999,4.8299 -22.1113999,13.6536 -22.1113999,16.361 0,0.7449 2.8076,1.9847 6.7199,2.9674 6.6394,1.6678 9.975,3.8866 19.7800999,13.1578 1.65,1.5601 6.2216,4.952 10.1591,7.5374 3.9374001,2.5855 8.9477001,6.3168 11.1338001,8.2918 3.809,3.4412 17.5944,10.5682 20.4416,10.5682 0.751,0 1.793,0.379 2.3155,0.8422 1.2051,1.0684 18.1851,7.1064 29.95,10.65014 4.95,1.49099 11.25,3.39712 14,4.23583 2.75,0.83871 9.95,1.87153 15.999999,2.29516 6.05,0.42362 14.825,1.22506 19.5,1.78098 4.675,0.55592 13.4448,1.08462 19.4883,1.1749 6.0436,0.0903 11.16381,0.33954 11.37821,0.55393 0.9015,0.90157 44.2424,-0.61125 57.3676,-2.00243 z m 223.7659,0.46929 c 0,-0.55 -0.19844,-1 -0.44098,-1 -0.24254,0 -0.7191,0.45 -1.05902,1 -0.33992,0.55 -0.14148,1 0.44098,1 0.58246,0 1.05902,-0.45 1.05902,-1 z m 20.9475,-38.75 c 1.82344,-6.0645 2.3059,-9.9248 2.21843,-17.75 -0.11412,-10.2104 -2.40623,-23.8488 -4.82433,-28.7056 -1.72602,-3.4668 -2.19974,-30.3441 -0.58769,-33.3434 0.60571,-1.1269 1.39262,-4.7269 1.7487,-8 0.6196,-5.6954 0.43529,-6.3805 -4.29103,-15.951 -2.71615,-5.5 -8.36569,-15.3471 -12.55455,-21.8825 -6.90206,-10.7684 -9.89262,-17.7153 -8.30829,-19.2996 0.32385,-0.3238 1.39036,0.8673 2.37004,2.647 3.46953,6.3029 11.63456,17.0351 12.96021,17.0351 1.31632,0 1.2075,-3.6557 -0.32743,-11 -0.28737,-1.375 -1.12005,-6.4895 -1.8504,-11.3656 -1.11461,-7.4415 -1.93696,-9.7498 -5.11969,-14.371 -2.08549,-3.0281 -5.27446,-6.6886 -7.0866,-8.1345 -1.81215,-1.4459 -3.29482,-3.0317 -3.29484,-3.524 -9e-5,-2.6807 -6.4261,-10.306404 -12.93239,-15.346904 -4.0878,-3.1669 -11.2878,-9.2561 -16,-13.5315 -7.1055,-6.4469 -11.0664,-9.0302 -23.20956,-15.1377 -8.05305,-4.0503 -17.27258,-8.3485 -20.48785,-9.5515 -3.21527,-1.203 -6.30303,-2.5666 -6.8617,-3.0302 -0.55867,-0.4637 -6.41413,-1.9979 -13.01214,-3.4095 -13.26365,-2.8375 -18.50743,-4.0809 -26.08428,-6.1848 -2.79834,-0.777 -5.78532,-1.4128 -6.63773,-1.4128 -0.85241,0 -4.44414,-1.3544 -7.98163,-3.0098 -8.19184,-3.833402 -28.5927,-8.194802 -32.75221,-7.001802 -1.63163,0.4679 -8.09365,0.5983 -14.36006,0.2897 -10.08433,-0.4967 -28.28672,0.8661 -32.33914,2.4212 -0.73774,0.2831 -1.34134,1.5364 -1.34134,2.7852 0,1.248902 -0.5625,2.726202 -1.25,3.283002 -0.6875,0.5568 -6.2,1.5431 -12.25,2.1918 -22.3257,2.3936 -33.15,4.8795 -40.5,9.3014 -14.81551,8.9131 -42.96851,29.5706 -43.01611,31.5634 -0.01,0.3717 -3.9804,5.0614 -8.8255,10.4215 -4.845199,5.3602 -12.600399,15.634104 -17.233899,22.831104 -4.6335,7.197 -10.3553,15.6364 -12.7153,18.7543 -13.5441,17.8947 -20.9335,31.8776 -33.3821,63.169 -3.8543,9.6883 -4.3755,11.4569 -3.1538,10.7019 0.5436,-0.3359 5.0019,-1.4575 9.9075,-2.4923 19.7701,-4.1705 53.312799,-0.9587 92.419199,8.8494 1.925,0.4828 14.07501,3.0945 27.00001,5.8038 12.925,2.7093 25.525,5.6161 28,6.4596 2.475,0.8434 6.975,1.98 10,2.5257 7.42674,1.3398 27.52638,8.7006 41.7083,15.2742 3.41456,1.5827 6.4809,2.8777 6.81408,2.8777 0.33317,0 2.93944,1.063 5.7917,2.3622 2.85225,1.2993 6.31092,2.7085 7.68592,3.1317 1.375,0.4232 6.1,2.5761 10.5,4.7842 11.60449,5.8237 34.09404,13.0659 48.5,15.6183 6.875,1.2181 14.47012,2.6534 16.87803,3.1895 6.16648,1.3732 36.30846,3.6868 57.62197,4.423 24.75708,0.8552 37.13315,2.6616 44.34734,6.4729 2.00896,1.0614 4.12905,1.9497 4.7113,1.974 0.58226,0.024 2.10724,-3.4433 3.38886,-7.7058 z M -22.075729,262.569 c -0.6527,-1.056 -6.9927,-3.0226 -9.7729,-3.0314 -1.9992,-0.01 -2.386,2.5711 -0.5,3.3321 2.3304,0.9404 10.8851,0.69 10.2729,-0.3007 z M 161.90138,424.84016 c -8.9727,-1.47083 -14.22811,-3.11019 -22.00001,-6.86265 -14.3366,-6.92206 -15.5,-7.82555 -15.5,-12.0378 0,-3.06838 0.2674,-3.50706 1.75,-2.8714 4.6055,1.97456 10.3773,3.66971 10.8581,3.18897 0.2946,-0.2946 -0.1717,-2.61904 -1.0362,-5.16541 -0.8646,-2.54637 -1.5719,-5.48748 -1.5719,-6.5358 0,-2.80052 -0.958,-3.00137 -6.9288,-1.45258 -5.6602,1.46823 -9.549,1.21809 -19.5269,-1.25605 -6.5725,-1.62975 -11.544299,-3.88927 -11.544299,-5.24656 0,-0.48387 3.610799,-0.63227 8.024099,-0.32978 9.6562,0.66186 9.7695,-0.14598 0.9084,-6.47927 -3.2629,-2.3321 -5.932499,-4.89787 -5.932499,-5.70173 0,-1.5855 1.753499,-1.0328 8.840299,2.78645 1.8371,0.99009 3.9397,1.57013 4.6723,1.28898 2.5898,-0.99379 0.3008,-4.36135 -4.4123,-6.49139 -5.4146,-2.4471 -13.100299,-8.66452 -13.100299,-10.59762 0,-0.7148 -0.6859,-1.86886 -1.5242,-2.56458 -2.6276,-2.1807 -0.841,-2.20692 3.3875,-0.0497 5.020599,2.56134 5.429499,2.56749 4.636699,0.0698 -1.0097,-3.1813 1.4141,-2.41879 7.9803,2.51051 3.2892,2.46922 6.3267,4.48949 6.75,4.48949 1.5119,0 0.7278,-2.26111 -1.8442,-5.31769 -1.5025,-1.78561 -2.1454,-3.26254 -1.5122,-3.47362 0.6059,-0.20197 5.4182,1.73243 10.6939,4.29868 5.2758,2.56624 9.8666,4.39154 10.2019,4.05622 0.3354,-0.33532 -1.5007,-2.75227 -4.08,-5.37098 -4.2015,-4.2657 -5.8466,-7.19265 -4.0425,-7.19265 0.3559,0 6.006,1.84987 12.5558,4.11083 6.5498,2.26096 12.1858,3.83374 12.52441,3.49506 0.3387,-0.33867 -1.78861,-2.86132 -4.72741,-5.60589 -2.9388,-2.74457 -5.1237,-5.20965 -4.8554,-5.47796 0.927,-0.92697 6.8761,1.35025 11.26421,4.31175 2.4219,1.63452 5.3051,3.25801 6.407,3.60776 1.102,0.34975 2.5493,1.29348 3.2163,2.09718 0.667,0.8037 1.9264,1.46127 2.7985,1.46127 1.0295,0 0.044,-1.57139 -2.81,-4.47903 -2.4177,-2.46347 -4.0965,-4.77844 -3.7305,-5.14438 0.3659,-0.36593 2.7513,0.1313 5.3008,1.10496 3.7616,1.4366 4.7888,1.52219 5.4489,0.45408 0.6244,-1.01036 2.1301,-0.44205 6.4792,2.44562 5.4778,3.63707 8.481,4.11517 8.481,1.35013 0,-0.73226 -0.5325,-1.86388 -1.1833,-2.51471 -0.6509,-0.65084 -0.8929,-1.4738 -0.5379,-1.82881 0.8513,-0.85126 9.0236,4.78084 16.6304,11.46108 3.3499,2.94192 6.0908,4.85442 6.0908,4.25 0,-0.60442 -0.45,-1.09894 -1,-1.09894 -0.55,0 -1,-0.675 -1,-1.5 0,-2.46117 1.2359,-1.81849 10.09559,5.25 12.56441,10.02416 16.32686,12.36285 20.86934,12.97212 2.67951,0.3594 4.47834,1.23762 5.16572,2.52201 1.50199,2.80648 -0.44924,4.66251 -3.13703,2.98396 -1.07605,-0.67201 -5.96045,-1.91281 -10.85421,-2.75733 -8.95021,-1.54455 -14.6844,-3.74635 -21.12151,-8.11017 -4.033,-2.73398 -5.0179,-2.91449 -5.0179,-0.91961 0,2.89718 -1.9823,2.47164 -9.6608,-2.07382 -8.9297,-5.28619 -12.7903,-6.6587 -15.1751,-5.39499 -0.9153,0.48501 -2.5207,1.15207 -3.5676,1.48235 -1.8713,0.59037 -1.8713,0.62508 0,2.05399 1.6573,1.26547 1.7095,1.592 0.4035,2.5243 -2.4771,1.76837 -11.9668,0.40002 -20.74991,-2.99201 l -8.2499,-3.1861 -2.635,2.07265 c -1.7253,1.35715 -4.0995,2.07265 -6.8776,2.07265 -2.5514,0 -4.739,0.59798 -5.4876,1.5 -0.6847,0.825 -1.8648,1.5 -2.6224,1.5 -1.5985,0 -1.8396,1.59642 -0.3776,2.5 0.55,0.33992 1,1.39282 1,2.33978 0,3.25688 5.2088,4.17161 16.8568,2.96028 9.70511,-1.00929 11.46521,-0.91704 19.96871,1.04655 5.1291,1.18436 9.9666,2.15339 10.75,2.15339 2.6363,0 1.4535,-1.68377 -2.3255,-3.3106 -7.527,-3.24031 -12.8136,-3.95956 -28.16021,-3.83123 -8.4756,0.0709 -15.0806,-0.20572 -14.6777,-0.61466 0.4028,-0.40893 2.8374,-1.41851 5.4101,-2.24351 3.6706,-1.17703 7.1177,-1.34368 16.0094,-0.77398 12.35251,0.79144 19.25971,2.76316 29.84871,8.52058 4.484,2.438 8.1133,3.56688 13.2226,4.11281 3.8733,0.41386 7.3621,1.07229 7.753,1.46319 1.2977,1.29763 -1.5556,3.02618 -4.8798,2.95633 -12.7714,-0.26839 -16.9983,-0.70111 -23.2246,-2.37762 -3.8783,-1.04428 -11.2793,-2.19644 -16.4465,-2.56035 l -9.39501,-0.66166 0.7002,7.10612 0.7002,7.10612 -3.0879,1.59682 c -9.5462,4.93656 10.40821,4.61564 23.79571,-0.38269 9.2297,-3.44596 9.1818,-3.43399 9.1818,-2.29656 0,0.44502 -2.6776,2.6568 -5.9502,4.91507 -4.8556,3.35068 -7.109,4.22761 -12.25,4.7673 -11.50671,1.20795 -13.25351,1.19661 -19.74041,-0.12824 -3.5423,-0.72346 -6.6184,-1.13761 -6.8356,-0.92033 -1.9776,1.97753 22.03871,7.66384 35.02621,8.29312 8.1341,0.39412 10.75,0.85136 10.75,1.879 0,2.50316 -10.917,5.60831 -16.5,4.69313 z m 1.0589,-55.83996 c -1.0676,-0.80751 -2.6162,-1.4682 -3.4412,-1.4682 -1.133,0 -1.0251,0.35919 0.4412,1.4682 1.0676,0.8075 2.6161,1.46819 3.4411,1.46819 1.133,0 1.0251,-0.35919 -0.4411,-1.46819 z m 26.965,-6.39284 c -0.6456,-2.03411 -4.5239,-3.00462 -4.5239,-1.13206 0,1.07444 4.1687,4.22132 4.781,3.60906 0.2209,-0.2209 0.1052,-1.33555 -0.2571,-2.477 z m 5.0421,37.16138 c -2.7137,-0.95521 -5.1269,-2.3389 -5.3627,-3.07487 -0.3489,-1.08911 1.4998,-1.20742 9.934,-0.63575 5.6995,0.38632 10.7902,1.10098 11.3127,1.58814 3.20798,2.99099 -8.8421,4.60118 -15.884,2.12248 z"
       id="path4179"
       inkscape:connector-curvature="0" />
  </g>
</svg>
